<svg xmlns="http://www.w3.org/2000/svg" width="500" height="500" viewBox="0 0 500 500">
    <rect x="0" y="0" width="500" height="500" fill="white"/>
    <path d="M250 50.4l-99.5 33.3v66.6l49.3 16.5c27.2 9 49 16.8 48.5 17.2-.4.4-22.7 8-49.5 17L150 217.2V283.5l49.5 16.5c27.2 9.1 49.5 16.7 49.5 17 0 .3-22.3 7.9-49.5 17L150 350.5V416.8l99.3 33.1c54.5 18.2 99.5 33.1 100 33.1.4 0 .7-14.8.7-32.9v-32.9L301.3 401c-26.9-9-49.2-16.6-49.6-17-.5-.4 21.3-8.2 48.5-17.2l49.3-16.5v-66.6l-49.3-16.5c-27.2-9-49-16.8-48.5-17.2.4-.4 22.7-8 49.6-17l48.7-16.2V150.5L300.5 134c-27.2-9.1-49.5-16.7-49.5-17 0-.3 22.3-7.9 49.5-17L350 83.5V50.3c0-18.3-.1-33.3-.2-33.2-.2 0-45.1 15-99.8 33.3zm96.8 1.3l-.3 29.6-95.5 31.9c-52.5 17.5-96.1 31.8-96.7 31.8-1 0-1.3-6.5-1.3-29.4V86.2l95.8-32c52.6-17.6 96.3-32.1 97-32.1 1-.1 1.2 6.1 1 29.6zm.2 133.1v29.7l-95.7 31.9c-52.7 17.5-96.4 32.1-97 32.4-1 .3-1.3-6-1.3-29.4v-29.9l96.3-32.2c52.9-17.7 96.5-32.2 97-32.2.4-.1.7 13.3.7 29.7zm0 133.6v29.4l-96.3 32.1c-52.9 17.7-96.5 32.1-97 32.1-.4 0-.6-13.4-.5-29.7l.3-29.6 95-31.8c52.3-17.5 95.8-31.8 96.8-31.8 1.6-.1 1.7 1.9 1.7 29.3z"/>
</svg>
