<svg xmlns="http://www.w3.org/2000/svg" width="1300px" viewBox="0 0 1300 170" fill="#f3ede4" preserveAspectRatio="xMidYMid meet">
<polygon points="48.08 113.1 48.08 104.74 40.29 104.74 55.68 89.35 49.6 83.27 19.77 113.1 48.08 113.1"/><rect x="45.71" y="165.61" width="47.29" height="8.6" transform="translate(-99.83 98.81) rotate(-45)"/><path d="M16.73,110.06,45,81.75,16.73,53.44ZM25.09,74l7.79,7.79-7.79,7.79Z"/><rect x="4.19" y="48.31" width="8.36" height="133.76"/><polygon points="89.12 141.03 55.68 107.59 49.6 113.67 83.04 147.11 83.04 147.11 89.12 141.03"/><rect x="14.64" y="184.16" width="33.44" height="8.36"/><polygon points="49.6 80.23 49.6 80.23 55.68 74.15 22.24 40.71 16.16 46.79 49.6 80.23"/><path d="M16.73,180h30.4l31.35-31.35L47.13,117.28H16.73Zm8.36-54.34H43.33l23,23-23,23H25.09Z"/><polygon points="183.36 116.71 151.44 148.63 183.36 180.55 189.44 174.47 163.6 148.63 189.44 122.79 183.36 116.71"/><path d="M147.45,50.4H117v96.14h30.4l32.3-32.3V82.7Zm23.94,60-27.74,27.74H125.41V58.76h18.24L171.39,86.5Z"/><rect x="165.38" y="36.82" width="8.6" height="47.29" transform="translate(6.94 137.69) rotate(-45)"/><polygon points="117.05 150.72 117.05 182.07 125.41 182.07 125.41 159.08 143.65 159.08 174.24 189.67 180.32 183.59 147.45 150.72 117.05 150.72"/><rect x="114.96" y="37.86" width="33.44" height="8.36"/><rect x="183.93" y="81.75" width="8.36" height="33.44"/><rect x="104.51" y="48.31" width="8.36" height="133.76"/><polygon points="217.37 48.31 217.37 147.68 249.67 179.98 280.07 179.98 280.07 48.31 271.71 48.31 271.71 171.62 253.47 171.62 225.73 143.88 225.73 48.31 217.37 48.31"/><rect x="204.83" y="48.31" width="8.36" height="100.32"/><rect x="284.25" y="48.31" width="8.36" height="133.76"/><rect x="223.14" y="146.26" width="8.6" height="47.29" transform="translate(-53.53 210.59) rotate(-45)"/><rect x="248.72" y="184.16" width="33.44" height="8.36"/><polygon points="380.39 110.06 380.39 48.31 372.03 48.31 372.03 89.54 323.2 40.71 317.12 46.79 380.39 110.06"/><rect x="305.15" y="48.31" width="8.36" height="133.76"/><polygon points="380.39 182.07 380.39 116.14 317.69 53.44 317.69 182.07 326.05 182.07 326.05 73.96 372.03 119.94 372.03 182.07 380.39 182.07"/><rect x="384.57" y="48.31" width="8.36" height="133.76"/><polygon points="414.4 80.23 447.84 46.79 441.76 40.71 408.32 74.15 414.4 80.23 414.4 80.23"/><path d="M480.71,82.7,449.36,51.35,418,82.7v65L449.36,179l31.35-31.35Zm-8.36,61.18-23,23-23-23V86.5l23-23,23,23Z"/><rect x="466.34" y="36.82" width="8.6" height="47.29" transform="translate(95.09 350.5) rotate(-45)"/><polygon points="450.88 183.59 450.88 183.59 456.96 189.67 490.4 156.23 484.32 150.15 450.88 183.59"/><rect x="405.47" y="81.75" width="8.36" height="66.88"/><rect x="484.89" y="81.75" width="8.36" height="66.88"/><rect x="423.78" y="146.26" width="8.6" height="47.29" transform="translate(5.24 352.46) rotate(-45)"/><rect x="666.98" y="36.82" width="8.6" height="47.29" transform="translate(153.86 492.38) rotate(-45)"/><rect x="605.07" y="56.17" width="47.29" height="8.6" transform="translate(141.39 462.28) rotate(-45)"/><polygon points="650 166.87 624.16 141.03 618.08 147.11 650 179.03 680.4 148.63 615.04 83.27 608.96 89.35 668.24 148.63 650 166.87"/><rect x="647.63" y="165.61" width="47.29" height="8.6" transform="translate(76.47 524.43) rotate(-45)"/><polygon points="648.48 183.59 615.04 150.15 608.96 156.23 642.4 189.67 648.48 183.59 648.48 183.59"/><polygon points="650 63.51 675.84 89.35 681.92 83.27 650 51.35 619.6 81.75 684.96 147.11 684.96 147.11 691.04 141.03 631.76 81.75 650 63.51"/><polygon points="715.36 80.23 748.8 46.79 742.72 40.71 709.28 74.15 715.36 80.23 715.36 80.23"/><rect x="767.3" y="36.82" width="8.6" height="47.29" transform="translate(183.24 563.31) rotate(-45)"/><path d="M781.67,82.7,750.32,51.35,719,82.7v65L750.32,179l31.35-31.35Zm-8.36,61.18-23,23-23-23V86.5l23-23,23,23Z"/><rect x="706.43" y="81.75" width="8.36" height="66.88"/><polygon points="751.84 183.59 751.84 183.59 757.92 189.67 791.36 156.23 785.28 150.15 751.84 183.59"/><rect x="785.85" y="81.75" width="8.36" height="66.88"/><rect x="724.74" y="146.26" width="8.6" height="47.29" transform="translate(93.39 565.27) rotate(-45)"/><rect x="886.17" y="48.31" width="8.36" height="133.76"/><polygon points="819.29 48.31 819.29 147.68 851.59 179.98 881.99 179.98 881.99 48.31 873.63 48.31 873.63 171.62 855.39 171.62 827.65 143.88 827.65 48.31 819.29 48.31"/><rect x="806.75" y="48.31" width="8.36" height="100.32"/><rect x="825.06" y="146.26" width="8.6" height="47.29" transform="translate(122.77 636.21) rotate(-45)"/><rect x="850.64" y="184.16" width="33.44" height="8.36"/><rect x="959.58" y="6.84" width="8.6" height="23.65" transform="translate(269.12 687.03) rotate(-45)"/><polygon points="976.8 141.03 950.96 166.87 927.97 143.88 927.97 125.64 950.96 125.64 950.96 117.28 919.61 117.28 919.61 147.68 950.96 179.03 982.88 147.11 976.8 141.03"/><rect x="967.94" y="36.82" width="8.6" height="47.29" transform="translate(242.05 705.23) rotate(-45)"/><polygon points="941.84 39.19 950.96 30.07 960.08 39.19 966.16 33.11 950.96 17.91 935.76 33.11 941.84 39.19"/><polygon points="919.61 113.1 950.96 113.1 950.96 104.74 927.97 104.74 927.97 86.5 950.96 63.51 976.8 89.35 982.88 83.27 950.96 51.35 919.61 82.7 919.61 113.1"/><polygon points="949.44 183.59 916 150.15 909.92 156.23 943.36 189.67 949.44 183.59 949.44 183.59"/><rect x="926.22" y="14.37" width="23.65" height="8.6" transform="translate(261.55 668.76) rotate(-45)"/><rect x="948.59" y="165.61" width="47.29" height="8.6" transform="translate(164.62 737.24) rotate(-45)"/><rect x="907.07" y="81.75" width="8.36" height="66.88"/><rect x="906.03" y="56.17" width="47.29" height="8.6" transform="translate(229.54 675.09) rotate(-45)"/><polygon points="1049.19 182.07 1049.19 50.4 1017.84 50.4 1017.84 58.76 1040.83 58.76 1040.83 182.07 1049.19 182.07"/><rect x="1017.84" y="37.86" width="66.88" height="8.36"/><polygon points="1053.37 50.4 1053.37 182.07 1061.73 182.07 1061.73 58.76 1084.72 58.76 1084.72 50.4 1053.37 50.4"/><rect x="1168.58" y="36.82" width="8.6" height="47.29" transform="translate(300.77 847.06) rotate(-45)"/><polygon points="1186.56 116.71 1154.64 148.63 1186.56 180.55 1192.64 174.47 1166.8 148.63 1192.64 122.79 1186.56 116.71"/><path d="M1150.65,50.4h-30.4v96.14h30.4l32.3-32.3V82.7Zm23.94,60-27.74,27.74h-18.24V58.76h18.24l27.74,27.74Z"/><rect x="1187.13" y="81.75" width="8.36" height="33.44"/><polygon points="1120.25 150.72 1120.25 182.07 1128.61 182.07 1128.61 159.08 1146.85 159.08 1177.44 189.67 1183.52 183.59 1150.65 150.72 1120.25 150.72"/><rect x="1118.16" y="37.86" width="33.44" height="8.36"/><rect x="1107.71" y="48.31" width="8.36" height="133.76"/><polygon points="1220.57 113.1 1251.92 113.1 1251.92 104.74 1228.93 104.74 1228.93 86.5 1251.92 63.51 1277.76 89.35 1283.84 83.27 1251.92 51.35 1220.57 82.7 1220.57 113.1"/><rect x="1268.9" y="36.82" width="8.6" height="47.29" transform="translate(330.16 918) rotate(-45)"/><polygon points="1277.76 141.03 1251.92 166.87 1228.93 143.88 1228.93 125.64 1251.92 125.64 1251.92 117.28 1220.57 117.28 1220.57 147.68 1251.92 179.03 1283.84 147.11 1277.76 141.03"/><rect x="1206.99" y="56.17" width="47.29" height="8.6" transform="translate(317.64 887.85) rotate(-45)"/><polygon points="1253.44 183.59 1253.44 183.59 1259.52 189.67 1292.96 156.23 1286.88 150.15 1253.44 183.59"/><rect x="1208.03" y="81.75" width="8.36" height="66.88"/><rect x="1226.34" y="146.26" width="8.6" height="47.29" transform="translate(240.3 919.96) rotate(-45)"/>
</svg>
