<svg xmlns="http://www.w3.org/2000/svg" width="900" height="210" viewBox="0 0 900 210" fill="#fc5454" preserveAspectRatio="xMidYMid meet">
<path d="M82.16,166.18l4.56,4.56L53.28,204.18l-4.56-4.56v6.27H15.28V193.35H45.87l30-30v-15.2L53.28,170.74l-4.56-4.56-4.56,4.56L10.72,137.3l4.56-4.56H9V99.3h6.27l-4.56-4.56L44.16,61.3l4.56,4.56,4.56-4.56L86.72,94.74,82.16,99.3h6.27v66.88ZM21.55,129.89l27.17,27.17,27.17-27.17V102.15L48.72,75,21.55,102.15Z"/><path d="M187,94.74l-9.12,9.12L149,75l-27.17,27.17v64H109.33V65.86h12.54v18L144.48,61.3,149,65.86l4.56-4.56Z"/><path d="M289.07,166.18H276.53V148.13l-22.61,22.61-4.56-4.56-4.56,4.56L211.36,137.3l4.56-4.56h-6.27V99.3h6.27l-4.56-4.56L244.8,61.3l4.56,4.56V59.59H282.8v6.27h6.27Zm-66.88-36.29,27.17,27.17,27.17-27.17V72.13H252.21l-30,30Z"/><path d="M383.12,132.74l4.56,4.56-33.44,33.44-4.56-4.56v6.27H322.51v27.17H310V65.86h6.27V59.59h33.44v6.27l4.56-4.56,33.44,33.44-4.56,4.56h6.27v33.44Zm-6.27-2.85V102.15l-30-30H322.51v87.78h24.32Z"/><path d="M489.71,166.18H477.17v-64L450,75l-27.17,27.17v64H410.29V32.42h12.54V83.91L445.44,61.3,450,65.86l4.56-4.56L488,94.74l-4.56,4.56h6.27Z"/><path d="M583.76,159.91v12.54H516.88V159.91h27.17V72.13H516.88V59.59h33.44v6.27h6.27v94.05ZM544.05,26.15h12.54V38.69H544.05Z"/><path d="M688.64,137.3,655.2,170.74l-4.56-4.56-4.56,4.56L612.64,137.3l9.12-9.12,28.88,28.88L675,132.74l-45.6-45.6,4.56-4.56L629.36,78,646.08,61.3l4.56,4.56,4.56-4.56L671.92,78l-9.12,9.12L650.64,75l-7.6,7.6,45.6,45.6-4.56,4.56Z"/><path d="M789,161.62l-9.12,9.12L746.4,137.3l4.56-4.56h-6.27V72.13H717.52V59.59h27.17V32.42h12.54V59.59H784.4V72.13H757.23v57.76Z"/><path d="M855.84,170.74l-4.56-4.56-4.56,4.56L813.28,137.3l4.56-4.56h-6.27V99.3h6.27l-4.56-4.56L846.72,61.3l4.56,4.56,4.56-4.56,33.44,33.44-4.56,4.56v6.27H824.11v24.32l27.17,27.17,28.88-28.88,9.12,9.12ZM869.33,93,851.28,75,833.23,93Z"/>
</svg>
